<svg width="78" height="78" viewBox="0 0 78 78" fill="none" xmlns="http://www.w3.org/2000/svg">
<g filter="url(#filter0_d_397_3)">
<circle cx="39" cy="35" r="35" fill="#5F328C"/>
<path d="M58.2578 43.7451H20.7422C20.5316 43.7451 20.3594 43.9174 20.3594 44.1279V46.8076C20.3594 47.0181 20.5316 47.1904 20.7422 47.1904H58.2578C58.4684 47.1904 58.6406 47.0181 58.6406 46.8076V44.1279C58.6406 43.9174 58.4684 43.7451 58.2578 43.7451ZM22.929 37.7541L24.8287 39.6442C24.9771 39.7926 25.2211 39.7926 25.3694 39.6442L36.6002 28.4517L41.2705 33.1077C41.5582 33.3928 41.9469 33.5527 42.352 33.5527C42.757 33.5527 43.1457 33.3928 43.4334 33.1077L56.0758 20.5132C56.2241 20.3648 56.2241 20.1208 56.0758 19.9724L54.1761 18.0775C54.1041 18.0063 54.007 17.9663 53.9057 17.9663C53.8045 17.9663 53.7073 18.0063 53.6354 18.0775L42.3567 29.3226L37.6816 24.6667C37.3939 24.3816 37.0052 24.2217 36.6002 24.2217C36.1951 24.2217 35.8065 24.3816 35.5187 24.6667L22.929 37.2134C22.8932 37.2487 22.8648 37.2908 22.8454 37.3372C22.826 37.3836 22.816 37.4334 22.816 37.4837C22.816 37.534 22.826 37.5838 22.8454 37.6302C22.8648 37.6766 22.8932 37.7187 22.929 37.7541Z" fill="#9DF6C4"/>
</g>
<defs>
<filter id="filter0_d_397_3" x="0" y="0" width="78" height="78" filterUnits="userSpaceOnUse" color-interpolation-filters="sRGB">
<feFlood flood-opacity="0" result="BackgroundImageFix"/>
<feColorMatrix in="SourceAlpha" type="matrix" values="0 0 0 0 0 0 0 0 0 0 0 0 0 0 0 0 0 0 127 0" result="hardAlpha"/>
<feOffset dy="4"/>
<feGaussianBlur stdDeviation="2"/>
<feComposite in2="hardAlpha" operator="out"/>
<feColorMatrix type="matrix" values="0 0 0 0 0 0 0 0 0 0 0 0 0 0 0 0 0 0 0.25 0"/>
<feBlend mode="normal" in2="BackgroundImageFix" result="effect1_dropShadow_397_3"/>
<feBlend mode="normal" in="SourceGraphic" in2="effect1_dropShadow_397_3" result="shape"/>
</filter>
</defs>
</svg>
