<svg width="78" height="78" viewBox="0 0 78 78" fill="none" xmlns="http://www.w3.org/2000/svg">
<g filter="url(#filter0_d_53_172)">
<circle cx="39" cy="35" r="35" fill="#5F328C"/>
<path d="M30.8333 38.8C30.2194 38.8 29.7045 38.5936 29.2885 38.1808C28.8739 37.7694 28.6667 37.2592 28.6667 36.65C28.6667 36.0408 28.8739 35.5299 29.2885 35.1171C29.7045 34.7057 30.2194 34.5 30.8333 34.5C31.4472 34.5 31.9622 34.7057 32.3782 35.1171C32.7927 35.5299 33 36.0408 33 36.65C33 37.2592 32.7927 37.7694 32.3782 38.1808C31.9622 38.5936 31.4472 38.8 30.8333 38.8ZM39.5 38.8C38.8861 38.8 38.3719 38.5936 37.9573 38.1808C37.5413 37.7694 37.3333 37.2592 37.3333 36.65C37.3333 36.0408 37.5413 35.5299 37.9573 35.1171C38.3719 34.7057 38.8861 34.5 39.5 34.5C40.1139 34.5 40.6288 34.7057 41.0448 35.1171C41.4594 35.5299 41.6667 36.0408 41.6667 36.65C41.6667 37.2592 41.4594 37.7694 41.0448 38.1808C40.6288 38.5936 40.1139 38.8 39.5 38.8ZM48.1667 38.8C47.5528 38.8 47.0386 38.5936 46.624 38.1808C46.208 37.7694 46 37.2592 46 36.65C46 36.0408 46.208 35.5299 46.624 35.1171C47.0386 34.7057 47.5528 34.5 48.1667 34.5C48.7806 34.5 49.2948 34.7057 49.7093 35.1171C50.1253 35.5299 50.3333 36.0408 50.3333 36.65C50.3333 37.2592 50.1253 37.7694 49.7093 38.1808C49.2948 38.5936 48.7806 38.8 48.1667 38.8ZM24.3333 56C23.1417 56 22.1212 55.5793 21.2718 54.738C20.4239 53.8952 20 52.8825 20 51.7V21.6C20 20.4175 20.4239 19.4056 21.2718 18.5642C22.1212 17.7214 23.1417 17.3 24.3333 17.3H26.5V13H30.8333V17.3H48.1667V13H52.5V17.3H54.6667C55.8583 17.3 56.8788 17.7214 57.7282 18.5642C58.5761 19.4056 59 20.4175 59 21.6V51.7C59 52.8825 58.5761 53.8952 57.7282 54.738C56.8788 55.5793 55.8583 56 54.6667 56H24.3333ZM24.3333 51.7H54.6667V30.2H24.3333V51.7Z" fill="#9DF6C4"/>
</g>
<defs>
<filter id="filter0_d_53_172" x="0" y="0" width="78" height="78" filterUnits="userSpaceOnUse" color-interpolation-filters="sRGB">
<feFlood flood-opacity="0" result="BackgroundImageFix"/>
<feColorMatrix in="SourceAlpha" type="matrix" values="0 0 0 0 0 0 0 0 0 0 0 0 0 0 0 0 0 0 127 0" result="hardAlpha"/>
<feOffset dy="4"/>
<feGaussianBlur stdDeviation="2"/>
<feComposite in2="hardAlpha" operator="out"/>
<feColorMatrix type="matrix" values="0 0 0 0 0 0 0 0 0 0 0 0 0 0 0 0 0 0 0.25 0"/>
<feBlend mode="normal" in2="BackgroundImageFix" result="effect1_dropShadow_53_172"/>
<feBlend mode="normal" in="SourceGraphic" in2="effect1_dropShadow_53_172" result="shape"/>
</filter>
</defs>
</svg>
