<svg width="78" height="78" viewBox="0 0 78 78" fill="none" xmlns="http://www.w3.org/2000/svg">
<g filter="url(#filter0_d_45_144)">
<circle cx="39" cy="35" r="35" fill="#5F328C"/>
<path d="M39 56.875C33.1984 56.875 27.6344 54.5703 23.532 50.468C19.4297 46.3656 17.125 40.8016 17.125 35C17.125 29.1984 19.4297 23.6344 23.532 19.532C27.6344 15.4297 33.1984 13.125 39 13.125C44.8016 13.125 50.3656 15.4297 54.468 19.532C58.5703 23.6344 60.875 29.1984 60.875 35C60.875 40.8016 58.5703 46.3656 54.468 50.468C50.3656 54.5703 44.8016 56.875 39 56.875ZM39 60C45.6304 60 51.9893 57.3661 56.6777 52.6777C61.3661 47.9893 64 41.6304 64 35C64 28.3696 61.3661 22.0107 56.6777 17.3223C51.9893 12.6339 45.6304 10 39 10C32.3696 10 26.0107 12.6339 21.3223 17.3223C16.6339 22.0107 14 28.3696 14 35C14 41.6304 16.6339 47.9893 21.3223 52.6777C26.0107 57.3661 32.3696 60 39 60Z" fill="#9DF6C4"/>
<path d="M35.8813 44.375C35.8813 43.9646 35.9621 43.5583 36.1192 43.1791C36.2762 42.8 36.5064 42.4555 36.7966 42.1653C37.0868 41.8751 37.4313 41.6449 37.8104 41.4879C38.1895 41.3308 38.5959 41.25 39.0063 41.25C39.4167 41.25 39.823 41.3308 40.2022 41.4879C40.5813 41.6449 40.9258 41.8751 41.216 42.1653C41.5062 42.4555 41.7364 42.8 41.8934 43.1791C42.0505 43.5583 42.1313 43.9646 42.1313 44.375C42.1313 45.2038 41.802 45.9987 41.216 46.5847C40.6299 47.1708 39.8351 47.5 39.0063 47.5C38.1775 47.5 37.3826 47.1708 36.7966 46.5847C36.2105 45.9987 35.8813 45.2038 35.8813 44.375ZM36.1875 25.6094C36.1459 25.2151 36.1877 24.8165 36.31 24.4395C36.4324 24.0624 36.6327 23.7153 36.8979 23.4206C37.1631 23.1259 37.4873 22.8903 37.8494 22.729C38.2116 22.5677 38.6036 22.4844 39 22.4844C39.3965 22.4844 39.7885 22.5677 40.1506 22.729C40.5128 22.8903 40.837 23.1259 41.1022 23.4206C41.3674 23.7153 41.5677 24.0624 41.69 24.4395C41.8124 24.8165 41.8542 25.2151 41.8125 25.6094L40.7188 36.5688C40.682 36.9993 40.485 37.4004 40.1668 37.6926C39.8485 37.9849 39.4321 38.147 39 38.147C38.5679 38.147 38.1516 37.9849 37.8333 37.6926C37.515 37.4004 37.318 36.9993 37.2813 36.5688L36.1875 25.6094Z" fill="#9DF6C4"/>
</g>
<defs>
<filter id="filter0_d_45_144" x="0" y="0" width="78" height="78" filterUnits="userSpaceOnUse" color-interpolation-filters="sRGB">
<feFlood flood-opacity="0" result="BackgroundImageFix"/>
<feColorMatrix in="SourceAlpha" type="matrix" values="0 0 0 0 0 0 0 0 0 0 0 0 0 0 0 0 0 0 127 0" result="hardAlpha"/>
<feOffset dy="4"/>
<feGaussianBlur stdDeviation="2"/>
<feComposite in2="hardAlpha" operator="out"/>
<feColorMatrix type="matrix" values="0 0 0 0 0 0 0 0 0 0 0 0 0 0 0 0 0 0 0.25 0"/>
<feBlend mode="normal" in2="BackgroundImageFix" result="effect1_dropShadow_45_144"/>
<feBlend mode="normal" in="SourceGraphic" in2="effect1_dropShadow_45_144" result="shape"/>
</filter>
</defs>
</svg>
