<svg width="308" height="102" viewBox="0 0 308 102" fill="none" xmlns="http://www.w3.org/2000/svg">
<path d="M64.125 8H66.9375V39.0781L66.75 44H64.125V8ZM84.5859 31.0859V31.5781C84.5859 33.4688 84.3672 35.2031 83.9297 36.7812C83.4922 38.3594 82.8594 39.7266 82.0312 40.8828C81.2031 42.0234 80.1875 42.9062 78.9844 43.5312C77.7969 44.1562 76.4297 44.4688 74.8828 44.4688C73.3672 44.4688 72.0234 44.2344 70.8516 43.7656C69.6797 43.2812 68.6797 42.6016 67.8516 41.7266C67.0234 40.8359 66.3594 39.7969 65.8594 38.6094C65.3594 37.4062 65.0078 36.0859 64.8047 34.6484V28.3906C65.0391 26.8594 65.4141 25.4688 65.9297 24.2188C66.4453 22.9688 67.1094 21.8906 67.9219 20.9844C68.75 20.0781 69.7344 19.3828 70.875 18.8984C72.0312 18.4141 73.3516 18.1719 74.8359 18.1719C76.3828 18.1719 77.7578 18.4766 78.9609 19.0859C80.1797 19.6797 81.2031 20.5469 82.0312 21.6875C82.8594 22.8125 83.4922 24.1719 83.9297 25.7656C84.3672 27.3438 84.5859 29.1172 84.5859 31.0859ZM81.75 31.5781V31.0859C81.75 29.6016 81.6094 28.2266 81.3281 26.9609C81.0469 25.6953 80.6016 24.5938 79.9922 23.6562C79.3984 22.7031 78.6328 21.9609 77.6953 21.4297C76.7578 20.8984 75.6328 20.6328 74.3203 20.6328C72.9766 20.6328 71.8281 20.8594 70.875 21.3125C69.9375 21.75 69.1562 22.3359 68.5312 23.0703C67.9219 23.7891 67.4375 24.5781 67.0781 25.4375C66.7188 26.2969 66.4531 27.1406 66.2812 27.9688V35.2578C66.5469 36.4297 67.0078 37.5312 67.6641 38.5625C68.3203 39.5938 69.2031 40.4297 70.3125 41.0703C71.4219 41.6953 72.7734 42.0078 74.3672 42.0078C75.6484 42.0078 76.75 41.7422 77.6719 41.2109C78.6094 40.6797 79.375 39.9453 79.9688 39.0078C80.5781 38.0703 81.0234 36.9688 81.3047 35.7031C81.6016 34.4375 81.75 33.0625 81.75 31.5781ZM107.039 38.1406V18.6406H109.852V44H107.156L107.039 38.1406ZM107.555 33.4531L109.008 33.4062C109.008 35 108.82 36.4688 108.445 37.8125C108.07 39.1562 107.484 40.3281 106.688 41.3281C105.891 42.3281 104.859 43.1016 103.594 43.6484C102.328 44.1953 100.805 44.4688 99.0234 44.4688C97.7891 44.4688 96.6562 44.2969 95.625 43.9531C94.6094 43.5938 93.7344 43.0312 93 42.2656C92.2656 41.5 91.6953 40.5078 91.2891 39.2891C90.8984 38.0703 90.7031 36.5938 90.7031 34.8594V18.6406H93.4922V34.9062C93.4922 36.2656 93.6406 37.3984 93.9375 38.3047C94.25 39.2109 94.6719 39.9375 95.2031 40.4844C95.75 41.0312 96.375 41.4219 97.0781 41.6562C97.7812 41.8906 98.5391 42.0078 99.3516 42.0078C101.414 42.0078 103.039 41.6094 104.227 40.8125C105.43 40.0156 106.281 38.9688 106.781 37.6719C107.297 36.3594 107.555 34.9531 107.555 33.4531ZM132.375 37.5312C132.375 36.8438 132.203 36.1641 131.859 35.4922C131.516 34.8203 130.852 34.2031 129.867 33.6406C128.898 33.0781 127.469 32.6016 125.578 32.2109C124.172 31.8984 122.914 31.5469 121.805 31.1562C120.711 30.7656 119.789 30.2969 119.039 29.75C118.289 29.2031 117.719 28.5469 117.328 27.7812C116.938 27.0156 116.742 26.1094 116.742 25.0625C116.742 24.125 116.945 23.2422 117.352 22.4141C117.773 21.5703 118.367 20.8359 119.133 20.2109C119.914 19.5703 120.852 19.0703 121.945 18.7109C123.055 18.3516 124.297 18.1719 125.672 18.1719C127.625 18.1719 129.297 18.5078 130.688 19.1797C132.094 19.8359 133.164 20.7344 133.898 21.875C134.648 23.0156 135.023 24.3047 135.023 25.7422H132.234C132.234 24.8672 131.977 24.0391 131.461 23.2578C130.961 22.4766 130.219 21.8359 129.234 21.3359C128.266 20.8359 127.078 20.5859 125.672 20.5859C124.219 20.5859 123.039 20.8047 122.133 21.2422C121.227 21.6797 120.562 22.2344 120.141 22.9062C119.734 23.5781 119.531 24.2734 119.531 24.9922C119.531 25.5547 119.617 26.0703 119.789 26.5391C119.977 26.9922 120.305 27.4141 120.773 27.8047C121.258 28.1953 121.945 28.5625 122.836 28.9062C123.727 29.25 124.883 29.5859 126.305 29.9141C128.352 30.3672 130.023 30.9219 131.32 31.5781C132.633 32.2188 133.602 33.0156 134.227 33.9688C134.852 34.9062 135.164 36.0469 135.164 37.3906C135.164 38.4375 134.945 39.3984 134.508 40.2734C134.07 41.1328 133.438 41.875 132.609 42.5C131.797 43.125 130.812 43.6094 129.656 43.9531C128.516 44.2969 127.234 44.4688 125.812 44.4688C123.672 44.4688 121.859 44.1172 120.375 43.4141C118.906 42.6953 117.789 41.7578 117.023 40.6016C116.273 39.4297 115.898 38.1875 115.898 36.875H118.688C118.781 38.1875 119.195 39.2266 119.93 39.9922C120.664 40.7422 121.562 41.2734 122.625 41.5859C123.703 41.8984 124.766 42.0547 125.812 42.0547C127.25 42.0547 128.453 41.8438 129.422 41.4219C130.391 41 131.125 40.4453 131.625 39.7578C132.125 39.0703 132.375 38.3281 132.375 37.5312ZM144.633 18.6406V44H141.844V18.6406H144.633ZM141.352 11.3047C141.352 10.7734 141.516 10.3281 141.844 9.96875C142.188 9.59375 142.656 9.40625 143.25 9.40625C143.844 9.40625 144.312 9.59375 144.656 9.96875C145.016 10.3281 145.195 10.7734 145.195 11.3047C145.195 11.8203 145.016 12.2656 144.656 12.6406C144.312 13 143.844 13.1797 143.25 13.1797C142.656 13.1797 142.188 13 141.844 12.6406C141.516 12.2656 141.352 11.8203 141.352 11.3047ZM155.086 24.0547V44H152.297V18.6406H154.969L155.086 24.0547ZM154.453 29.75L153.211 29.0469C153.305 27.5469 153.609 26.1406 154.125 24.8281C154.641 23.5156 155.336 22.3594 156.211 21.3594C157.102 20.3594 158.141 19.5781 159.328 19.0156C160.531 18.4531 161.859 18.1719 163.312 18.1719C164.578 18.1719 165.711 18.3438 166.711 18.6875C167.711 19.0312 168.562 19.5781 169.266 20.3281C169.969 21.0781 170.5 22.0391 170.859 23.2109C171.234 24.3828 171.422 25.8125 171.422 27.5V44H168.609V27.4766C168.609 25.7266 168.367 24.3594 167.883 23.375C167.398 22.375 166.711 21.6641 165.82 21.2422C164.93 20.8203 163.875 20.6094 162.656 20.6094C161.312 20.6094 160.133 20.9062 159.117 21.5C158.117 22.0781 157.273 22.8359 156.586 23.7734C155.914 24.6953 155.398 25.6875 155.039 26.75C154.68 27.7969 154.484 28.7969 154.453 29.75ZM188.484 44.4688C186.828 44.4688 185.305 44.1641 183.914 43.5547C182.539 42.9453 181.336 42.0859 180.305 40.9766C179.289 39.8672 178.5 38.5547 177.938 37.0391C177.391 35.5078 177.117 33.8359 177.117 32.0234V31.0156C177.117 29.0625 177.406 27.2969 177.984 25.7188C178.562 24.1406 179.359 22.7891 180.375 21.6641C181.391 20.5391 182.547 19.6797 183.844 19.0859C185.156 18.4766 186.531 18.1719 187.969 18.1719C189.578 18.1719 191.008 18.4609 192.258 19.0391C193.508 19.6016 194.555 20.4062 195.398 21.4531C196.258 22.4844 196.906 23.7109 197.344 25.1328C197.781 26.5391 198 28.0938 198 29.7969V31.5078H178.805V29.1172H195.211V28.7891C195.18 27.3672 194.891 26.0391 194.344 24.8047C193.812 23.5547 193.016 22.5391 191.953 21.7578C190.891 20.9766 189.562 20.5859 187.969 20.5859C186.781 20.5859 185.688 20.8359 184.688 21.3359C183.703 21.8359 182.852 22.5547 182.133 23.4922C181.43 24.4141 180.883 25.5156 180.492 26.7969C180.117 28.0625 179.93 29.4688 179.93 31.0156V32.0234C179.93 33.4297 180.133 34.7422 180.539 35.9609C180.961 37.1641 181.555 38.2266 182.32 39.1484C183.102 40.0703 184.023 40.7891 185.086 41.3047C186.148 41.8203 187.32 42.0781 188.602 42.0781C190.102 42.0781 191.43 41.8047 192.586 41.2578C193.742 40.6953 194.781 39.8125 195.703 38.6094L197.461 39.9688C196.914 40.7812 196.227 41.5312 195.398 42.2188C194.586 42.9062 193.609 43.4531 192.469 43.8594C191.328 44.2656 190 44.4688 188.484 44.4688ZM218.719 37.5312C218.719 36.8438 218.547 36.1641 218.203 35.4922C217.859 34.8203 217.195 34.2031 216.211 33.6406C215.242 33.0781 213.812 32.6016 211.922 32.2109C210.516 31.8984 209.258 31.5469 208.148 31.1562C207.055 30.7656 206.133 30.2969 205.383 29.75C204.633 29.2031 204.062 28.5469 203.672 27.7812C203.281 27.0156 203.086 26.1094 203.086 25.0625C203.086 24.125 203.289 23.2422 203.695 22.4141C204.117 21.5703 204.711 20.8359 205.477 20.2109C206.258 19.5703 207.195 19.0703 208.289 18.7109C209.398 18.3516 210.641 18.1719 212.016 18.1719C213.969 18.1719 215.641 18.5078 217.031 19.1797C218.438 19.8359 219.508 20.7344 220.242 21.875C220.992 23.0156 221.367 24.3047 221.367 25.7422H218.578C218.578 24.8672 218.32 24.0391 217.805 23.2578C217.305 22.4766 216.562 21.8359 215.578 21.3359C214.609 20.8359 213.422 20.5859 212.016 20.5859C210.562 20.5859 209.383 20.8047 208.477 21.2422C207.57 21.6797 206.906 22.2344 206.484 22.9062C206.078 23.5781 205.875 24.2734 205.875 24.9922C205.875 25.5547 205.961 26.0703 206.133 26.5391C206.32 26.9922 206.648 27.4141 207.117 27.8047C207.602 28.1953 208.289 28.5625 209.18 28.9062C210.07 29.25 211.227 29.5859 212.648 29.9141C214.695 30.3672 216.367 30.9219 217.664 31.5781C218.977 32.2188 219.945 33.0156 220.57 33.9688C221.195 34.9062 221.508 36.0469 221.508 37.3906C221.508 38.4375 221.289 39.3984 220.852 40.2734C220.414 41.1328 219.781 41.875 218.953 42.5C218.141 43.125 217.156 43.6094 216 43.9531C214.859 44.2969 213.578 44.4688 212.156 44.4688C210.016 44.4688 208.203 44.1172 206.719 43.4141C205.25 42.6953 204.133 41.7578 203.367 40.6016C202.617 39.4297 202.242 38.1875 202.242 36.875H205.031C205.125 38.1875 205.539 39.2266 206.273 39.9922C207.008 40.7422 207.906 41.2734 208.969 41.5859C210.047 41.8984 211.109 42.0547 212.156 42.0547C213.594 42.0547 214.797 41.8438 215.766 41.4219C216.734 41 217.469 40.4453 217.969 39.7578C218.469 39.0703 218.719 38.3281 218.719 37.5312ZM243.047 37.5312C243.047 36.8438 242.875 36.1641 242.531 35.4922C242.188 34.8203 241.523 34.2031 240.539 33.6406C239.57 33.0781 238.141 32.6016 236.25 32.2109C234.844 31.8984 233.586 31.5469 232.477 31.1562C231.383 30.7656 230.461 30.2969 229.711 29.75C228.961 29.2031 228.391 28.5469 228 27.7812C227.609 27.0156 227.414 26.1094 227.414 25.0625C227.414 24.125 227.617 23.2422 228.023 22.4141C228.445 21.5703 229.039 20.8359 229.805 20.2109C230.586 19.5703 231.523 19.0703 232.617 18.7109C233.727 18.3516 234.969 18.1719 236.344 18.1719C238.297 18.1719 239.969 18.5078 241.359 19.1797C242.766 19.8359 243.836 20.7344 244.57 21.875C245.32 23.0156 245.695 24.3047 245.695 25.7422H242.906C242.906 24.8672 242.648 24.0391 242.133 23.2578C241.633 22.4766 240.891 21.8359 239.906 21.3359C238.938 20.8359 237.75 20.5859 236.344 20.5859C234.891 20.5859 233.711 20.8047 232.805 21.2422C231.898 21.6797 231.234 22.2344 230.812 22.9062C230.406 23.5781 230.203 24.2734 230.203 24.9922C230.203 25.5547 230.289 26.0703 230.461 26.5391C230.648 26.9922 230.977 27.4141 231.445 27.8047C231.93 28.1953 232.617 28.5625 233.508 28.9062C234.398 29.25 235.555 29.5859 236.977 29.9141C239.023 30.3672 240.695 30.9219 241.992 31.5781C243.305 32.2188 244.273 33.0156 244.898 33.9688C245.523 34.9062 245.836 36.0469 245.836 37.3906C245.836 38.4375 245.617 39.3984 245.18 40.2734C244.742 41.1328 244.109 41.875 243.281 42.5C242.469 43.125 241.484 43.6094 240.328 43.9531C239.188 44.2969 237.906 44.4688 236.484 44.4688C234.344 44.4688 232.531 44.1172 231.047 43.4141C229.578 42.6953 228.461 41.7578 227.695 40.6016C226.945 39.4297 226.57 38.1875 226.57 36.875H229.359C229.453 38.1875 229.867 39.2266 230.602 39.9922C231.336 40.7422 232.234 41.2734 233.297 41.5859C234.375 41.8984 235.438 42.0547 236.484 42.0547C237.922 42.0547 239.125 41.8438 240.094 41.4219C241.062 41 241.797 40.4453 242.297 39.7578C242.797 39.0703 243.047 38.3281 243.047 37.5312ZM64.1484 84H70.6875V65.9766C70.9062 65.6328 71.1484 65.3203 71.4141 65.0391C71.6797 64.7578 71.9766 64.5156 72.3047 64.3125C72.7109 64.0312 73.1719 63.8203 73.6875 63.6797C74.2188 63.5391 74.7969 63.4688 75.4219 63.4688C76.1719 63.4688 76.8438 63.5469 77.4375 63.7031C78.0312 63.8438 78.5391 64.1016 78.9609 64.4766C79.3828 64.8516 79.7031 65.3672 79.9219 66.0234C80.1562 66.6641 80.2734 67.4844 80.2734 68.4844V84H86.7891V68.3906C86.7891 66.5469 86.5703 64.9844 86.1328 63.7031C85.7109 62.4062 85.1172 61.3438 84.3516 60.5156C83.5703 59.7031 82.6484 59.1094 81.5859 58.7344C80.5234 58.3594 79.3516 58.1719 78.0703 58.1719C77.0703 58.1719 76.125 58.3125 75.2344 58.5938C74.3438 58.875 73.5234 59.2812 72.7734 59.8125C72.3359 60.125 71.9219 60.4766 71.5312 60.8672C71.1406 61.2578 70.7812 61.6875 70.4531 62.1562L70.0547 58.6406H64.1484V84ZM129.281 84.4688C131.734 84.4688 133.859 83.9922 135.656 83.0391C137.453 82.0859 138.766 81.0234 139.594 79.8516L136.336 76.3359C135.586 77.3047 134.609 78.0312 133.406 78.5156C132.203 79 130.961 79.2422 129.68 79.2422C128.773 79.2422 127.938 79.1016 127.172 78.8203C126.406 78.5391 125.727 78.1406 125.133 77.625C124.555 77.125 124.094 76.5703 123.75 75.9609C123.406 75.3359 123.125 74.5156 122.906 73.5V73.4297H140.109V70.6641C140.109 68.8047 139.852 67.1094 139.336 65.5781C138.82 64.0312 138.07 62.7109 137.086 61.6172C136.086 60.5234 134.867 59.6797 133.43 59.0859C132.008 58.4766 130.383 58.1719 128.555 58.1719C126.789 58.1719 125.156 58.4922 123.656 59.1328C122.156 59.7734 120.859 60.6719 119.766 61.8281C118.672 62.9844 117.82 64.3672 117.211 65.9766C116.602 67.5703 116.297 69.3359 116.297 71.2734V72.2109C116.297 73.9141 116.602 75.5156 117.211 77.0156C117.836 78.5 118.719 79.7891 119.859 80.8828C121 81.9922 122.367 82.8672 123.961 83.5078C125.555 84.1484 127.328 84.4688 129.281 84.4688ZM128.508 63.4453C129.336 63.4453 130.062 63.5781 130.688 63.8438C131.328 64.0938 131.867 64.4375 132.305 64.875C132.742 65.3281 133.086 65.8594 133.336 66.4688C133.586 67.0781 133.711 67.7266 133.711 68.4141V68.9297H123.023C123.18 68.1016 123.414 67.3516 123.727 66.6797C124.039 66.0078 124.43 65.4297 124.898 64.9453C125.352 64.4609 125.883 64.0938 126.492 63.8438C127.102 63.5781 127.773 63.4453 128.508 63.4453ZM171.68 84H177.398L180.094 70.4531L180.609 67.875L181.148 70.4531L183.938 84H189.656L194.203 58.6406H188.227L186.352 73.5938L186.023 76.0547L185.578 73.6406L182.836 58.6406H178.477L175.734 73.7109L175.289 76.125L174.984 73.7109L173.086 58.6406H167.133L171.68 84ZM238.992 77.0391C238.992 77.4297 238.891 77.7891 238.688 78.1172C238.5 78.4453 238.211 78.7344 237.82 78.9844C237.414 79.2344 236.891 79.4375 236.25 79.5938C235.625 79.7344 234.891 79.8047 234.047 79.8047C233.344 79.8047 232.656 79.7344 231.984 79.5938C231.328 79.4531 230.742 79.2266 230.227 78.9141C229.711 78.6172 229.289 78.2266 228.961 77.7422C228.633 77.2422 228.445 76.6484 228.398 75.9609H222.188C222.188 76.9922 222.438 78.0234 222.938 79.0547C223.453 80.0703 224.203 80.9766 225.188 81.7734C226.172 82.5859 227.391 83.2422 228.844 83.7422C230.312 84.2422 232 84.4922 233.906 84.4922C235.641 84.4922 237.211 84.3047 238.617 83.9297C240.023 83.5391 241.227 83 242.227 82.3125C243.211 81.625 243.969 80.8125 244.5 79.875C245.047 78.9219 245.32 77.8828 245.32 76.7578C245.32 75.5391 245.047 74.4922 244.5 73.6172C243.969 72.7266 243.227 71.9688 242.273 71.3438C241.32 70.7344 240.188 70.2344 238.875 69.8438C237.562 69.4531 236.141 69.1328 234.609 68.8828C233.547 68.7266 232.672 68.5469 231.984 68.3438C231.297 68.125 230.758 67.8828 230.367 67.6172C229.961 67.3672 229.68 67.0859 229.523 66.7734C229.367 66.4453 229.289 66.0938 229.289 65.7188C229.289 65.3438 229.375 64.9922 229.547 64.6641C229.734 64.3203 230 64.0234 230.344 63.7734C230.719 63.4922 231.203 63.2734 231.797 63.1172C232.391 62.9609 233.086 62.8828 233.883 62.8828C234.82 62.8828 235.617 63 236.273 63.2344C236.945 63.4688 237.477 63.7812 237.867 64.1719C238.148 64.4688 238.359 64.8047 238.5 65.1797C238.641 65.5391 238.711 65.9297 238.711 66.3516H245.227C245.227 65.1797 244.969 64.0938 244.453 63.0938C243.938 62.0938 243.195 61.2266 242.227 60.4922C241.242 59.7734 240.047 59.2109 238.641 58.8047C237.234 58.3828 235.648 58.1719 233.883 58.1719C232.195 58.1719 230.68 58.3828 229.336 58.8047C227.992 59.2266 226.852 59.7969 225.914 60.5156C224.977 61.2344 224.258 62.0703 223.758 63.0234C223.258 63.9766 223.008 64.9766 223.008 66.0234C223.008 67.1016 223.25 68.0547 223.734 68.8828C224.234 69.7109 224.922 70.4375 225.797 71.0625C226.672 71.7031 227.719 72.25 228.938 72.7031C230.172 73.1406 231.531 73.5078 233.016 73.8047C234.188 74.0234 235.156 74.2422 235.922 74.4609C236.688 74.6797 237.305 74.9141 237.773 75.1641C238.227 75.4297 238.539 75.7109 238.711 76.0078C238.898 76.3047 238.992 76.6484 238.992 77.0391Z" fill="#5E3286"/>
<line y1="-1" x2="307.045" y2="-1" transform="matrix(0.99998 0.00630785 -0.00582284 0.999983 0 50.7208)" stroke="#89FBBB" stroke-width="2"/>
</svg>
