<svg width="78" height="78" viewBox="0 0 78 78" fill="none" xmlns="http://www.w3.org/2000/svg">
<g filter="url(#filter0_d_45_133)">
<circle cx="39" cy="35" r="35" fill="#5F328C"/>
<path d="M39 51.6667C29.8125 51.6667 22.3334 44.1875 22.3334 35C22.3334 25.8125 29.8125 18.3333 39 18.3333C48.1875 18.3333 55.6667 25.8125 55.6667 35C55.6667 44.1875 48.1875 51.6667 39 51.6667ZM39 55.8333C50.5 55.8333 59.8334 46.5 59.8334 35C59.8334 23.5 50.5 14.1667 39 14.1667C27.5 14.1667 18.1667 23.5 18.1667 35C18.1667 46.5 27.5 55.8333 39 55.8333ZM36.9167 35V43.3333H41.0834V35H47.3334L39 26.6667L30.6667 35H36.9167Z" fill="#9DF6C4"/>
</g>
<defs>
<filter id="filter0_d_45_133" x="0" y="0" width="78" height="78" filterUnits="userSpaceOnUse" color-interpolation-filters="sRGB">
<feFlood flood-opacity="0" result="BackgroundImageFix"/>
<feColorMatrix in="SourceAlpha" type="matrix" values="0 0 0 0 0 0 0 0 0 0 0 0 0 0 0 0 0 0 127 0" result="hardAlpha"/>
<feOffset dy="4"/>
<feGaussianBlur stdDeviation="2"/>
<feComposite in2="hardAlpha" operator="out"/>
<feColorMatrix type="matrix" values="0 0 0 0 0 0 0 0 0 0 0 0 0 0 0 0 0 0 0.25 0"/>
<feBlend mode="normal" in2="BackgroundImageFix" result="effect1_dropShadow_45_133"/>
<feBlend mode="normal" in="SourceGraphic" in2="effect1_dropShadow_45_133" result="shape"/>
</filter>
</defs>
</svg>
